<svg xmlns="http://www.w3.org/2000/svg" width="102" height="38" viewBox="0 0 102 38" fill="none">
  <path d="M102 9.60204C97.0473 9.60204 93.033 5.57782 93.033 0.613281C93.033 5.57782 89.0187 9.60204 84.0664 9.60204C89.0187 9.60204 93.033 13.6263 93.033 18.5908C93.0316 13.6263 97.0473 9.60204 102 9.60204Z" fill="white" fill-opacity="0.5"></path>
  <path d="M5.37402 37.3787H0V4.46094H5.37402V37.3787Z" fill="white" fill-opacity="0.5"></path>
  <path d="M17.5684 37.7725C11.6091 37.7725 8.19141 34.526 8.19141 28.8643V13.1562H13.5654V28.467C13.5654 31.8054 14.7926 33.0469 18.096 33.0469C22.3768 33.0469 24.1231 30.991 24.1231 25.9529V13.1562H29.4971V37.3822H24.3431V33.153C23.6407 36.4037 20.5192 37.7725 17.5684 37.7725Z" fill="white" fill-opacity="0.5"></path>
  <path d="M66.5414 37.3812H61.2111V21.7156C61.2111 18.5341 60.2224 17.3506 57.5608 17.3506C54.1361 17.3506 52.3264 19.3938 52.3264 23.2597V37.3798H46.9961V21.7156C46.9961 18.6147 45.9763 17.3506 43.4783 17.3506C39.0225 17.3506 38.1113 22.0111 38.1113 23.2597V37.3798H32.7373V13.1552H37.8913V17.3916C38.8067 14.4194 41.7025 12.625 44.6222 12.625C47.5405 12.625 49.9948 13.7421 51.0597 17.3916C52.4886 13.6077 55.0585 12.625 58.1334 12.625C63.4764 12.625 66.5414 15.2946 66.5414 19.9509V37.3812V37.3812Z" fill="white" fill-opacity="0.5"></path>
  <path d="M77.3535 37.7715C69.9315 37.7715 68.6719 33.0417 68.6719 30.628C68.6719 27.7858 69.9173 25.2251 72.6114 24.1872C73.7976 23.7475 74.9416 23.4194 76.1151 23.1833C77.149 22.9754 78.7443 22.7549 79.9108 22.5937L80.2958 22.5399C82.3241 22.2571 84.4808 21.2376 84.4808 19.9071C84.4808 17.6447 81.5879 17.3067 79.8628 17.3067C77.9064 17.3067 76.5284 17.8115 75.9797 18.7278C75.4874 19.6412 75.4536 19.8548 75.328 20.6508L75.2406 21.2772H69.8666L69.9625 20.484C70.1529 18.9088 70.4435 17.7931 70.8765 16.973C72.3632 14.0899 75.3577 12.625 79.774 12.625C83.4568 12.625 86.069 13.7887 87.2863 14.8789C88.0353 15.5293 88.5699 16.2703 88.9634 17.2063C89.7871 18.954 89.8548 20.1234 89.8548 21.3635V33.5846C89.8548 34.7257 89.9648 35.7014 90.1806 36.4833L90.4289 37.3812H84.9406L84.8419 36.7887C84.7714 36.3702 84.7474 33.9961 84.7178 33.0798C83.4483 36.4183 80.7303 37.7715 77.3535 37.7715ZM84.4794 24.5195C83.3552 25.3835 81.5921 25.877 79.032 26.3902C74.6214 27.2075 73.8781 28.2369 73.8781 30.2391C73.8781 32.0066 75.3774 33.1039 77.7922 33.1039C82.4793 33.1039 84.4794 30.915 84.4794 25.7836V24.5195Z" fill="white" fill-opacity="0.5"></path>
</svg>